<svg width="58.2" height="66.1" viewBox="0 0 58.2 66.1" xmlns="http://www.w3.org/2000/svg"><g id="svgGroup" stroke-linecap="round" fill-rule="evenodd" font-size="9pt" stroke="#000" stroke-width="0.25mm" fill="#000" style="stroke:#000;stroke-width:0.25mm;fill:#000"><path d="M 44.9 10.2 L 44.9 14.7 A 118.974 118.974 0 0 0 45.375 25.557 A 93.936 93.936 0 0 0 46.4 33.3 A 99.285 99.285 0 0 0 47.514 38.766 Q 48.656 43.622 50.1 47.1 A 26.864 26.864 0 0 0 53.015 52.627 A 22.251 22.251 0 0 0 56.2 56.3 A 12.278 12.278 0 0 1 56.812 56.843 Q 57.513 57.511 57.8 58.05 A 3.328 3.328 0 0 1 58.175 59.203 A 3.147 3.147 0 0 1 58.2 59.6 A 4.259 4.259 0 0 1 57.805 61.358 Q 57.548 61.931 57.123 62.503 A 7.691 7.691 0 0 1 57.05 62.6 A 9.214 9.214 0 0 1 54.653 64.771 A 10.864 10.864 0 0 1 54.1 65.1 Q 52.3 66.1 50.4 66.1 A 6.373 6.373 0 0 1 45.632 63.998 A 9.035 9.035 0 0 1 45.15 63.45 A 14.27 14.27 0 0 1 43.854 61.515 Q 42.662 59.419 41.519 56.217 A 61.319 61.319 0 0 1 41 54.7 A 63.786 63.786 0 0 1 39.606 49.924 A 56.721 56.721 0 0 1 39.35 48.85 A 50.47 50.47 0 0 1 38.502 44.148 A 45.285 45.285 0 0 1 38.4 43.3 Q 37.312 44.974 36.399 45.702 A 3.606 3.606 0 0 1 36.05 45.95 Q 35 46.6 33 46.6 Q 28.1 46.6 22.6 46.45 A 3025.892 3025.892 0 0 0 18.017 46.329 Q 15.918 46.275 14.033 46.229 A 1775.483 1775.483 0 0 0 12.8 46.2 Q 12.6 48 12.45 49.85 Q 12.3 51.7 12.3 53.5 Q 12.3 55.1 12.45 56.7 A 117.133 117.133 0 0 1 12.674 59.424 A 105.896 105.896 0 0 1 12.7 59.8 A 5.512 5.512 0 0 1 12.732 60.388 Q 12.732 62.399 11.158 63.792 A 6.549 6.549 0 0 1 10.5 64.3 A 9.56 9.56 0 0 1 7.008 65.741 A 13.441 13.441 0 0 1 4.3 66 A 5.322 5.322 0 0 1 3.092 65.876 Q 1.1 65.41 1.1 63.2 A 9.554 9.554 0 0 1 1.171 62.112 Q 1.353 60.546 2 58.1 Q 2.344 56.519 2.593 55.245 A 83.847 83.847 0 0 0 2.8 54.15 A 25.722 25.722 0 0 0 2.958 53.183 Q 3.091 52.254 3.099 51.593 A 6.969 6.969 0 0 0 3.1 51.5 A 7.143 7.143 0 0 0 2.98 50.14 Q 2.835 49.394 2.514 48.834 A 3.045 3.045 0 0 0 1.4 47.7 A 3.581 3.581 0 0 1 0.708 47.196 A 2.126 2.126 0 0 1 0 45.6 A 6.623 6.623 0 0 1 0.077 44.63 Q 0.206 43.763 0.55 42.7 Q 1.1 41 2 39.55 A 12.942 12.942 0 0 1 2.539 38.746 Q 3.144 37.918 3.7 37.5 Q 4.302 37.157 5.125 36.887 A 11.366 11.366 0 0 1 5.4 36.8 A 8.127 8.127 0 0 1 6.22 36.603 Q 6.673 36.518 7.197 36.461 A 17.212 17.212 0 0 1 7.9 36.4 Q 11.541 25.944 16.01 18.146 A 77.426 77.426 0 0 1 16.65 17.05 Q 20.679 10.279 25.158 6.062 A 32.585 32.585 0 0 1 27 4.45 A 22.851 22.851 0 0 1 31.153 1.739 Q 34.638 0 38.2 0 A 8.191 8.191 0 0 1 40.179 0.224 A 5.131 5.131 0 0 1 43.3 2.35 Q 44.9 4.7 44.9 10.2 Z M 30.6 35.3 L 37.6 35.3 Q 37.4 32.5 37.25 29.4 Q 37.1 26.3 37.1 22.9 L 37.1 17.1 A 20.571 20.571 0 0 0 37.069 15.925 Q 36.958 13.993 36.45 13.25 A 1.93 1.93 0 0 0 35.569 12.561 Q 35.226 12.418 34.789 12.354 A 5.421 5.421 0 0 0 34 12.3 A 8.538 8.538 0 0 0 29.789 13.482 Q 27.126 14.977 24.462 18.363 A 32.565 32.565 0 0 0 24.2 18.7 Q 19.3 25.1 15.8 35.8 A 40964.704 40964.704 0 0 1 19.306 35.657 Q 20.697 35.601 21.97 35.549 A 23549.429 23549.429 0 0 1 24.4 35.45 Q 28.056 35.302 30.54 35.3 A 84.243 84.243 0 0 1 30.6 35.3 Z" vector-effect="non-scaling-stroke"/></g></svg>