<svg width="42.8" height="65.6" viewBox="0 0 42.8 65.6" xmlns="http://www.w3.org/2000/svg"><g id="svgGroup" stroke-linecap="round" fill-rule="evenodd" font-size="9pt" stroke="#000" stroke-width="0.25mm" fill="#000" style="stroke:#000;stroke-width:0.25mm;fill:#000"><path d="M 20.1 65.6 Q 10.6 65.6 6.05 62.55 Q 2.511 60.178 1.725 54.568 A 25.042 25.042 0 0 1 1.5 51.1 A 28.894 28.894 0 0 1 1.535 49.727 Q 1.594 48.5 1.75 47 Q 1.922 45.35 2.212 43.227 A 200.851 200.851 0 0 1 2.5 41.2 A 188.179 188.179 0 0 0 3.123 37.113 Q 3.475 34.616 3.7 32.45 Q 4.1 28.6 4.1 24 A 109.878 109.878 0 0 0 3.985 18.903 A 99.253 99.253 0 0 0 3.95 18.2 A 53.263 53.263 0 0 0 3.626 14.492 A 45.694 45.694 0 0 0 3.4 12.9 Q 1.9 13.2 1.4 13.2 Q 0.708 13.2 0.39 12.938 A 0.728 0.728 0 0 1 0.3 12.85 A 0.911 0.911 0 0 1 0.148 12.585 Q 0 12.203 0 11.5 Q 0 9.4 0.5 7.35 A 13.107 13.107 0 0 1 0.967 5.822 Q 1.362 4.777 1.9 4 A 6.404 6.404 0 0 1 5.274 1.583 A 9.475 9.475 0 0 1 7.1 1.2 Q 9.8 0.9 13.75 0.6 Q 17.7 0.3 21.85 0.15 Q 25.724 0.01 28.858 0.001 A 148.926 148.926 0 0 1 29.3 0 A 332.839 332.839 0 0 1 32.486 0.014 Q 38.819 0.075 40.2 0.4 A 4.316 4.316 0 0 1 41.291 0.704 Q 42.8 1.372 42.8 3.2 A 8.201 8.201 0 0 1 41.134 8.147 A 10.54 10.54 0 0 1 40.7 8.7 Q 39.916 9.769 39.132 10.407 A 5.195 5.195 0 0 1 38.5 10.85 A 3.616 3.616 0 0 1 37.576 11.225 Q 36.717 11.451 35.532 11.406 A 11.128 11.128 0 0 1 35.4 11.4 Q 31 11.1 27.7 11 A 437.98 437.98 0 0 0 26.197 10.957 Q 24.08 10.9 23.1 10.9 A 115.163 115.163 0 0 0 18.96 10.977 A 126.705 126.705 0 0 0 18.35 11 Q 15.9 11.1 13.4 11.3 A 93.162 93.162 0 0 1 13.283 15.87 A 114.183 114.183 0 0 1 13.1 18.8 A 212.238 212.238 0 0 1 12.552 24.891 A 245.881 245.881 0 0 1 12.3 27.2 Q 16.9 26.9 22.7 26.75 Q 28.5 26.6 33 26.6 A 15.787 15.787 0 0 1 33.895 26.623 Q 34.75 26.672 35.287 26.822 A 2.305 2.305 0 0 1 35.75 27 Q 36.5 27.4 36.5 29.1 A 7.159 7.159 0 0 1 36.314 30.673 Q 36.155 31.378 35.861 32.137 A 13.304 13.304 0 0 1 35.65 32.65 A 11.033 11.033 0 0 1 34.026 35.314 A 10.117 10.117 0 0 1 33.4 36 A 5.157 5.157 0 0 1 32.449 36.756 A 4.63 4.63 0 0 1 32.1 36.95 Q 31.458 37.271 30.397 37.214 A 6.74 6.74 0 0 1 30.2 37.2 A 289.54 289.54 0 0 0 25.916 37.034 Q 23.345 36.953 20.45 36.9 Q 15 36.8 10.9 36.9 Q 10.5 39.2 10.3 41.1 A 40.118 40.118 0 0 0 10.163 42.686 Q 10.112 43.474 10.102 44.179 A 23.463 23.463 0 0 0 10.1 44.5 Q 10.1 47.633 11.009 49.696 A 6.39 6.39 0 0 0 12.9 52.2 A 8.293 8.293 0 0 0 15.25 53.453 Q 17.516 54.263 20.914 54.38 A 34.337 34.337 0 0 0 22.1 54.4 Q 26 54.4 29.65 53.7 A 26.903 26.903 0 0 0 34.505 52.264 A 33.131 33.131 0 0 0 37.1 51.1 A 11.784 11.784 0 0 1 37.747 50.755 Q 38.672 50.3 39.2 50.3 A 1.757 1.757 0 0 1 40.119 50.576 Q 40.681 50.916 41.229 51.677 A 7.261 7.261 0 0 1 41.35 51.85 Q 42.4 53.4 42.4 55.2 Q 42.4 57.4 40.75 59.35 A 12.687 12.687 0 0 1 38.42 61.472 A 16.695 16.695 0 0 1 36.4 62.7 A 25.346 25.346 0 0 1 33.23 63.87 Q 31.284 64.452 29 64.85 Q 24.7 65.6 20.1 65.6 Z" vector-effect="non-scaling-stroke"/></g></svg>