<svg width="51.5" height="65.4" viewBox="0 0 51.5 65.4" xmlns="http://www.w3.org/2000/svg"><g id="svgGroup" stroke-linecap="round" fill-rule="evenodd" font-size="9pt" stroke="#000" stroke-width="0.25mm" fill="#000" style="stroke:#000;stroke-width:0.25mm;fill:#000"><path d="M 42.4 65.2 Q 38.4 65.2 34.75 63.2 A 29.527 29.527 0 0 1 29.116 59.158 A 33.997 33.997 0 0 1 27.9 58 Q 24.7 54.8 22.15 51 Q 19.6 47.2 17.75 43.5 A 64.429 64.429 0 0 1 16.496 40.852 Q 15.563 38.75 15 37 A 21.18 21.18 0 0 1 14.454 35.083 Q 14.1 33.554 14.1 32.3 Q 14.1 30.1 15.7 27 Q 17 24.6 19.5 21.2 A 95.573 95.573 0 0 1 22.55 17.28 A 120.399 120.399 0 0 1 25.25 14.1 Q 28.5 10.4 32.05 7.2 A 43.241 43.241 0 0 1 36.06 3.98 A 34.573 34.573 0 0 1 39.2 2 A 18.627 18.627 0 0 1 41.83 0.781 Q 43.329 0.232 44.732 0.069 A 10.108 10.108 0 0 1 45.9 0 Q 47.775 0 48.954 0.74 A 3.711 3.711 0 0 1 49.95 1.65 Q 51.2 3.3 51.2 5.4 A 9.365 9.365 0 0 1 50.955 7.482 A 12.295 12.295 0 0 1 50.5 9 A 10.448 10.448 0 0 1 49.57 10.923 A 8.533 8.533 0 0 1 48.6 12.2 A 4.323 4.323 0 0 1 47.559 13.042 A 3.508 3.508 0 0 1 45.8 13.5 A 7.012 7.012 0 0 1 44.616 13.404 A 5.865 5.865 0 0 1 43.95 13.25 Q 43.1 13 41.8 13 A 8.354 8.354 0 0 0 40.669 13.083 Q 39.789 13.203 38.75 13.5 A 10.595 10.595 0 0 0 37.211 14.082 Q 36.461 14.43 35.657 14.918 A 21.061 21.061 0 0 0 34.9 15.4 A 24.026 24.026 0 0 0 33.759 16.263 Q 32.419 17.335 30.7 18.95 A 66.387 66.387 0 0 0 27.696 21.97 A 82.579 82.579 0 0 0 25.6 24.3 Q 23 27.3 20.8 30.7 Q 22.2 34.1 24.6 37.55 A 77.219 77.219 0 0 0 29.276 43.623 A 71.043 71.043 0 0 0 29.6 44 Q 33.138 48.065 36.478 50.487 A 24.534 24.534 0 0 0 38.65 51.9 Q 43 54.4 49.3 54.4 Q 50.422 54.4 50.911 54.847 A 1.108 1.108 0 0 1 51.05 55 Q 51.5 55.6 51.5 56.9 A 8.152 8.152 0 0 1 50.495 60.772 A 11.303 11.303 0 0 1 49.35 62.5 A 6.64 6.64 0 0 1 46.206 64.646 Q 45.085 65.027 43.706 65.146 A 15.183 15.183 0 0 1 42.4 65.2 Z M 3.179 65.339 A 9.373 9.373 0 0 0 4.3 65.4 Q 6.2 65.4 8.2 64.75 A 10.475 10.475 0 0 0 9.656 64.158 A 7.943 7.943 0 0 0 11.5 62.9 A 4.036 4.036 0 0 0 11.733 62.667 Q 12.597 61.728 12.554 60.507 A 3.637 3.637 0 0 0 12.5 60 A 39.64 39.64 0 0 1 12.417 59.425 Q 12.264 58.325 12.004 56.168 A 617.654 617.654 0 0 1 11.8 54.45 A 60.734 60.734 0 0 1 11.526 51.397 Q 11.415 49.739 11.359 47.817 A 147.672 147.672 0 0 1 11.3 43.5 Q 11.3 37.6 11.8 32.15 Q 12.3 26.7 12.8 22.1 Q 13.1 18.6 13.35 15.65 Q 13.6 12.7 13.6 10.3 Q 13.6 7.9 13.4 5.55 A 12.117 12.117 0 0 0 13.399 5.534 Q 13.311 4.515 13.062 3.638 A 7.314 7.314 0 0 0 12.15 1.6 A 3.357 3.357 0 0 0 11.579 0.934 Q 10.939 0.363 10.006 0.141 A 5.651 5.651 0 0 0 8.7 0 Q 6.9 0 4.9 0.9 Q 2.9 1.8 1.45 3.05 A 6.29 6.29 0 0 0 0.925 3.556 Q 0.561 3.952 0.34 4.353 A 2.563 2.563 0 0 0 0 5.6 A 1.538 1.538 0 0 0 0.024 5.864 Q 0.052 6.021 0.11 6.198 A 3.596 3.596 0 0 0 0.25 6.55 A 7.143 7.143 0 0 0 0.517 7.077 A 9.321 9.321 0 0 0 0.9 7.7 Q 3.4 11.8 3.85 16.5 A 80.043 80.043 0 0 1 3.908 17.13 Q 4.3 21.599 4.3 27.2 Q 4.3 36 3.2 44.7 A 251.724 251.724 0 0 1 2.24 51.554 A 201.327 201.327 0 0 1 0.6 60.8 Q 0.331 62.278 0.559 63.305 A 3.095 3.095 0 0 0 0.9 64.2 Q 1.441 65.128 3.179 65.339 Z" vector-effect="non-scaling-stroke"/></g></svg>