<svg width="55.9" height="65.4" viewBox="0 0 55.9 65.4" xmlns="http://www.w3.org/2000/svg"><g id="svgGroup" stroke-linecap="round" fill-rule="evenodd" font-size="9pt" stroke="#000" stroke-width="0.25mm" fill="#000" style="stroke:#000;stroke-width:0.25mm;fill:#000"><path d="M 3.41 65.156 A 7.011 7.011 0 0 0 5.3 65.4 A 15.97 15.97 0 0 0 6.833 65.33 Q 8.05 65.212 9.066 64.899 A 7.339 7.339 0 0 0 11.5 63.65 A 8.893 8.893 0 0 0 12.309 62.927 Q 13.7 61.511 13.7 60 A 5.228 5.228 0 0 0 13.616 59.084 Q 13.5 58.435 13.226 57.728 A 11.063 11.063 0 0 0 12.6 56.4 Q 11.4 54.1 10.8 51.65 A 17.149 17.149 0 0 1 10.598 50.708 Q 10.2 48.569 10.2 45.8 Q 10.2 43.925 10.317 41.562 A 144.569 144.569 0 0 1 10.5 38.55 Q 10.8 34.3 11.3 29.8 Q 11.8 25.3 12.3 21.5 A 7.718 7.718 0 0 1 12.426 20.802 Q 12.599 20.053 12.892 19.677 A 0.874 0.874 0 0 1 13.6 19.3 A 1.246 1.246 0 0 1 13.959 19.358 Q 14.564 19.54 15.4 20.3 A 101.802 101.802 0 0 1 21.654 28.051 A 132.949 132.949 0 0 1 28.45 38.35 Q 34.7 48.8 39 59.8 A 10.19 10.19 0 0 0 39.996 61.786 A 7.066 7.066 0 0 0 42.25 64 A 10.033 10.033 0 0 0 43.463 64.629 A 7.851 7.851 0 0 0 46.6 65.3 A 8.637 8.637 0 0 0 47.59 65.245 A 6.07 6.07 0 0 0 51.65 63.15 A 6.733 6.733 0 0 0 52.331 62.203 Q 52.995 61.09 53.281 59.661 A 11.996 11.996 0 0 0 53.5 57.3 A 26.367 26.367 0 0 0 53.489 56.535 Q 53.463 55.668 53.383 54.691 A 48.475 48.475 0 0 0 53.2 52.9 Q 53 51 52.85 49 Q 52.7 47 52.7 44.9 A 64.742 64.742 0 0 1 52.709 43.838 Q 52.763 40.525 53.15 36.4 Q 53.6 31.6 54.25 26.65 Q 54.9 21.7 55.4 17.4 A 118.407 118.407 0 0 0 55.422 17.213 Q 55.747 14.374 55.851 12.244 A 38.009 38.009 0 0 0 55.9 10.4 Q 55.9 8 55.55 5.65 A 11.197 11.197 0 0 0 55.1 3.738 A 8.144 8.144 0 0 0 54.1 1.7 A 3.527 3.527 0 0 0 51.958 0.253 A 5.659 5.659 0 0 0 50.6 0.1 A 7.693 7.693 0 0 0 48.957 0.282 A 9.629 9.629 0 0 0 47.1 0.9 Q 45.3 1.7 44.05 2.95 A 6.263 6.263 0 0 0 43.585 3.467 Q 42.8 4.449 42.8 5.4 A 2.718 2.718 0 0 0 42.844 5.88 A 3.45 3.45 0 0 0 43 6.45 A 17.065 17.065 0 0 0 43.058 6.608 Q 43.149 6.849 43.257 7.116 A 30.194 30.194 0 0 0 43.5 7.7 Q 44.1 8.8 44.75 10.65 A 12.072 12.072 0 0 1 44.843 10.926 Q 45.234 12.131 45.549 13.903 A 46.536 46.536 0 0 1 45.85 15.85 A 31.516 31.516 0 0 1 45.89 16.161 Q 46.166 18.38 46.256 21.567 A 118.15 118.15 0 0 1 46.3 24.9 Q 46.3 34.4 44.5 46.1 Q 44.429 46.385 44.307 46.568 A 0.692 0.692 0 0 1 43.7 46.9 Q 43.386 46.9 43.01 46.407 A 4.048 4.048 0 0 1 42.8 46.1 Q 38.2 34.9 31.3 24.25 Q 24.4 13.6 15.8 3.9 A 19.251 19.251 0 0 0 14.949 3.04 A 22.293 22.293 0 0 0 12.8 1.25 A 6.209 6.209 0 0 0 10.567 0.223 A 8.287 8.287 0 0 0 8.6 0 Q 6.1 0 4.05 1.65 A 5.272 5.272 0 0 0 2.221 4.567 A 7.965 7.965 0 0 0 2 6.5 Q 2 7.6 2.15 8.5 Q 2.3 9.4 2.5 10.5 Q 2.828 11.813 3.113 13.642 A 68.969 68.969 0 0 1 3.4 15.7 Q 3.8 18.9 3.8 24.9 Q 3.8 30.6 3 36.35 Q 2.2 42.1 1.4 46.9 Q 0.9 50.3 0.45 53.45 A 57.844 57.844 0 0 0 0.257 54.932 Q 0.128 56.043 0.063 57.017 A 27.19 27.19 0 0 0 0 58.8 A 18.977 18.977 0 0 0 0.063 60.406 Q 0.313 63.332 1.55 64.25 A 5.633 5.633 0 0 0 3.41 65.156 Z" vector-effect="non-scaling-stroke"/></g></svg>