<svg width="49.7" height="65.7" viewBox="0 0 49.7 65.7" xmlns="http://www.w3.org/2000/svg"><g id="svgGroup" stroke-linecap="round" fill-rule="evenodd" font-size="9pt" stroke="#000" stroke-width="0.25mm" fill="#000" style="stroke:#000;stroke-width:0.25mm;fill:#000"><path d="M 4.937 65.441 A 7.796 7.796 0 0 0 6.9 65.7 A 16.938 16.938 0 0 0 7.58 65.687 Q 9.03 65.629 10.269 65.318 A 9.077 9.077 0 0 0 13.4 63.9 A 9.43 9.43 0 0 0 14.04 63.398 Q 14.691 62.838 15.115 62.241 A 3.98 3.98 0 0 0 15.9 59.9 A 3.735 3.735 0 0 0 15.312 57.909 A 5.588 5.588 0 0 0 14.5 56.9 Q 12.5 55 11.85 52.35 Q 11.485 50.86 11.325 49.1 A 32.08 32.08 0 0 1 11.2 46.2 Q 11.2 42.2 11.65 37.3 Q 12.1 32.4 12.7 27.4 A 249.845 249.845 0 0 0 12.994 25.075 Q 13.842 18.086 14.1 12.5 A 37.671 37.671 0 0 1 17.207 11.732 A 30.823 30.823 0 0 1 23.3 11.1 A 21.223 21.223 0 0 1 27.415 11.48 A 15.159 15.159 0 0 1 32.45 13.4 A 7.402 7.402 0 0 1 35.806 17.742 A 10.439 10.439 0 0 1 36.2 20.7 A 12.344 12.344 0 0 1 36.184 21.339 A 9.422 9.422 0 0 1 32.9 28.2 A 11.252 11.252 0 0 1 28.065 30.675 A 15.808 15.808 0 0 1 24.3 31.1 Q 22.331 31.1 21.03 31.249 A 11.059 11.059 0 0 0 20.05 31.4 Q 19.348 31.546 18.798 31.808 A 3.573 3.573 0 0 0 17.8 32.5 A 3.622 3.622 0 0 0 16.911 33.928 A 4.3 4.3 0 0 0 16.7 35.3 A 6.829 6.829 0 0 0 16.724 35.867 A 7.729 7.729 0 0 0 17 37.35 A 29.315 29.315 0 0 0 17.077 37.615 A 32.533 32.533 0 0 0 17.7 39.5 Q 19.3 43.3 21.65 47.8 Q 24 52.3 27 56.35 A 35.813 35.813 0 0 0 29.128 58.963 A 28.94 28.94 0 0 0 33.55 63 A 15.373 15.373 0 0 0 35.12 64.013 A 11.876 11.876 0 0 0 41 65.6 Q 42.856 65.6 44.27 65.189 A 6.715 6.715 0 0 0 46.2 64.3 A 8.73 8.73 0 0 0 46.713 63.922 A 7.068 7.068 0 0 0 48.9 61.05 A 11.649 11.649 0 0 0 49.231 60.139 A 9.712 9.712 0 0 0 49.7 57.2 A 9.155 9.155 0 0 0 49.68 56.565 Q 49.604 55.483 49.25 55.05 Q 48.8 54.5 48.2 54.6 A 11.98 11.98 0 0 1 47.854 54.653 Q 46.774 54.8 45.4 54.8 A 12.122 12.122 0 0 1 41.707 54.216 Q 39.508 53.517 37.337 51.98 A 25.226 25.226 0 0 1 33.8 48.9 Q 31.9 46.9 30.05 44.4 Q 28.2 41.9 26.6 39.4 A 21.864 21.864 0 0 0 30.422 38.24 A 26.569 26.569 0 0 0 35.25 35.65 Q 39.5 32.8 42.25 28.3 A 18.162 18.162 0 0 0 44.13 24.114 A 20.843 20.843 0 0 0 45 18 A 20.654 20.654 0 0 0 44.775 14.897 A 15.647 15.647 0 0 0 42.3 8.4 Q 39.6 4.4 34.8 2.2 Q 30 0 23.8 0 A 35.796 35.796 0 0 0 20.583 0.148 A 43.227 43.227 0 0 0 14.95 1.05 Q 10.3 2.1 6.2 4.4 A 21.454 21.454 0 0 0 5.029 5.05 Q 2.792 6.388 1.55 7.95 A 6.286 6.286 0 0 0 1.094 8.607 Q 0.468 9.64 0.2 10.962 A 10.776 10.776 0 0 0 0 13.1 Q 0 14.5 0.35 15.55 Q 0.583 16.248 1.102 16.482 A 1.441 1.441 0 0 0 1.7 16.6 Q 2.044 16.6 2.506 16.482 A 6.52 6.52 0 0 0 2.95 16.35 A 11.852 11.852 0 0 0 3.578 16.122 A 9.263 9.263 0 0 0 4.3 15.8 Q 4.6 17.9 4.7 20.2 A 112.381 112.381 0 0 1 4.744 21.338 A 98.012 98.012 0 0 1 4.8 24.6 Q 4.8 30.5 4.15 36.5 Q 3.5 42.5 2.7 47.5 Q 2.3 50.5 1.95 53.65 Q 1.6 56.8 1.6 58.8 Q 1.6 60.907 1.97 62.275 A 5.365 5.365 0 0 0 2.4 63.4 A 6.053 6.053 0 0 0 2.506 63.59 Q 3.281 64.926 4.45 65.3 A 9.079 9.079 0 0 0 4.937 65.441 Z" vector-effect="non-scaling-stroke"/></g></svg>