<svg width="44.401" height="66" viewBox="0 0 44.401 66" xmlns="http://www.w3.org/2000/svg"><g id="svgGroup" stroke-linecap="round" fill-rule="evenodd" font-size="9pt" stroke="#000" stroke-width="0.25mm" fill="#000" style="stroke:#000;stroke-width:0.25mm;fill:#000"><path d="M 12.368 65.434 A 29.056 29.056 0 0 0 18.2 66 Q 26 66 31.85 62.75 A 28.564 28.564 0 0 0 32.926 62.122 A 23.899 23.899 0 0 0 40.95 54.2 Q 44.2 48.9 44.2 42.8 A 21.994 21.994 0 0 0 44.14 41.143 Q 43.721 35.603 40.4 32.85 A 18.629 18.629 0 0 0 38.219 31.302 Q 36.477 30.237 34.3 29.368 A 39.174 39.174 0 0 0 29.8 27.9 Q 19.8 25.5 15.95 23.35 A 12.514 12.514 0 0 1 15.151 22.865 Q 14.189 22.229 13.53 21.51 A 5.064 5.064 0 0 1 12.1 18 Q 12.1 15.961 13.608 14.293 A 9.249 9.249 0 0 1 15.15 12.95 Q 18.2 10.8 23.1 10.8 Q 25.7 10.8 29.15 11.65 A 30.19 30.19 0 0 1 31.243 12.245 A 25.336 25.336 0 0 1 35.4 14 A 13.915 13.915 0 0 0 35.91 14.257 Q 37.255 14.9 38.1 14.9 Q 39.2 14.9 40.7 14.05 Q 42.2 13.2 43.3 11.7 A 5.55 5.55 0 0 0 44.052 10.292 A 6.131 6.131 0 0 0 44.4 8.2 Q 44.4 5.6 42.25 3.8 A 10.726 10.726 0 0 0 41.329 3.112 Q 40.288 2.415 38.977 1.863 A 20.412 20.412 0 0 0 36.45 1 A 26.845 26.845 0 0 0 33.113 0.317 A 33.664 33.664 0 0 0 28.4 0 A 32.258 32.258 0 0 0 24.464 0.233 A 25.389 25.389 0 0 0 17.8 1.95 A 29.06 29.06 0 0 0 15.742 2.898 A 24.336 24.336 0 0 0 9.8 7.1 A 25.663 25.663 0 0 0 8.619 8.323 A 21.83 21.83 0 0 0 4.8 14.15 A 21.872 21.872 0 0 0 4.402 15.113 A 18.731 18.731 0 0 0 3.1 21.9 A 22.287 22.287 0 0 0 3.1 21.907 Q 3.102 27.002 5.85 30.05 A 17.033 17.033 0 0 0 8.438 32.383 A 19.952 19.952 0 0 0 12.85 34.8 Q 17.1 36.5 21.7 37.6 A 95.444 95.444 0 0 1 22.261 37.738 Q 28.06 39.178 31.4 40.8 A 7.949 7.949 0 0 1 32.253 41.279 Q 33.809 42.288 34.451 43.846 A 6.394 6.394 0 0 1 34.9 46.3 Q 34.9 50.3 31.15 52.65 Q 27.4 55 21.5 55 Q 17 55 13.05 53.35 A 33.292 33.292 0 0 1 12.423 53.081 Q 10.756 52.344 9.362 51.502 A 19.154 19.154 0 0 1 6.6 49.5 Q 5.971 49.064 5.364 48.839 A 3.622 3.622 0 0 0 4.1 48.6 A 3.245 3.245 0 0 0 1.951 49.354 A 4.183 4.183 0 0 0 1.1 50.35 A 6.934 6.934 0 0 0 0.311 52.112 A 8.155 8.155 0 0 0 0 54.4 Q 0 57.9 2.5 60.5 A 14.641 14.641 0 0 0 5.835 63.061 A 20.029 20.029 0 0 0 9.15 64.55 A 24.823 24.823 0 0 0 12.368 65.434 Z" vector-effect="non-scaling-stroke"/></g></svg>